<?xml version="1.0" standalone="no"?>
<!DOCTYPE svg PUBLIC "-//W3C//DTD SVG 20010904//EN"
 "http://www.w3.org/TR/2001/REC-SVG-20010904/DTD/svg10.dtd">
<svg version="1.0" xmlns="http://www.w3.org/2000/svg"
 width="385.000000pt" height="383.000000pt" viewBox="0 0 385.000000 383.000000"
 preserveAspectRatio="xMidYMid meet">
<metadata>
Created by potrace 1.16, written by Peter Selinger 2001-2019
</metadata>
<g transform="translate(0.000000,383.000000) scale(0.100000,-0.100000)"
fill="#000000" stroke="none">
<path d="M3660 3723 c-262 -46 -590 -120 -590 -133 0 -5 16 -21 35 -36 20 -15
47 -47 61 -71 l26 -43 7 -479 6 -479 262 256 261 257 16 80 c8 44 33 169 56
277 22 109 40 218 40 243 0 105 -62 149 -180 128z"/>
<path d="M44 3709 c-27 -14 -44 -50 -44 -95 0 -46 25 -198 60 -369 52 -249 23
-204 332 -515 l273 -275 5 500 c4 355 8 506 17 520 6 11 27 36 47 54 20 19 36
38 36 42 0 25 -85 52 -291 94 -234 47 -397 64 -435 44z"/>
<path d="M1576 3684 c-319 -38 -573 -122 -693 -228 -71 -62 -83 -98 -83 -251
0 -164 9 -195 70 -255 115 -112 382 -201 725 -241 140 -17 527 -17 670 0 405
46 704 163 775 302 17 33 20 59 20 185 0 177 -11 209 -94 273 -136 106 -370
178 -701 217 -150 17 -538 17 -689 -2z"/>
<path d="M800 2533 c0 -241 1 -259 21 -301 67 -138 365 -255 774 -303 142 -17
528 -17 670 0 411 48 704 162 775 302 18 35 20 59 20 299 0 143 -3 260 -6 260
-3 0 -18 -8 -32 -19 -172 -121 -535 -212 -925 -230 -486 -24 -972 60 -1220
209 -36 22 -68 40 -71 40 -4 0 -6 -116 -6 -257z"/>
<path d="M800 1793 c0 -190 3 -223 19 -259 50 -111 273 -220 556 -273 180 -33
259 -41 480 -47 495 -14 949 84 1127 245 76 68 78 77 78 331 0 121 -3 220 -6
220 -3 0 -18 -8 -32 -19 -142 -100 -456 -190 -771 -221 -145 -14 -496 -14
-638 0 -302 30 -570 102 -737 200 -37 22 -70 40 -72 40 -2 0 -4 -98 -4 -217z"/>
<path d="M431 1503 c-51 -25 -145 -116 -171 -166 l-24 -44 23 -69 c12 -38 56
-144 97 -236 41 -92 74 -174 74 -181 0 -15 -61 -85 -213 -246 -103 -108 -203
-231 -212 -260 -9 -30 37 -92 143 -193 114 -108 135 -116 195 -78 53 33 165
130 338 292 69 65 131 118 136 118 5 0 95 -38 199 -84 219 -97 290 -122 328
-112 32 8 191 157 213 199 18 36 12 46 -104 169 l-87 91 172 168 171 167 -37
6 c-20 3 -82 10 -137 16 -191 20 -408 69 -552 124 -126 49 -174 81 -374 249
-71 60 -115 88 -137 87 -4 0 -22 -8 -41 -17z"/>
<path d="M3304 1477 c-33 -24 -86 -68 -119 -98 -96 -86 -135 -114 -214 -154
-158 -79 -395 -138 -678 -169 -78 -9 -147 -16 -153 -16 -7 0 66 -76 162 -169
l173 -169 -50 -53 c-72 -78 -122 -141 -129 -166 -20 -63 140 -243 216 -243 36
0 177 52 378 141 l155 68 60 -58 c199 -192 344 -325 391 -357 53 -37 53 -37
81 -19 105 68 263 239 263 284 0 24 -35 64 -203 232 -112 112 -211 216 -221
231 -17 26 -16 28 19 113 19 48 51 117 69 154 19 37 53 111 76 164 41 96 41
99 24 125 -40 61 -203 202 -235 202 -4 0 -33 -20 -65 -43z"/>
</g>
</svg>
